<mxfile host="app.diagrams.net" modified="2022-08-31T07:34:45.008Z" agent="5.0 (Macintosh; Intel Mac OS X 10_15_7) AppleWebKit/537.36 (KHTML, like Gecko) Chrome/104.0.0.0 Safari/537.36" etag="L0whGMiRFiEmCDoLyAp6" version="20.2.3" type="github">
  <diagram id="ByqBCOwQlsSOdAjhjWay" name="Page-1">
    <mxGraphModel dx="1298" dy="773" grid="1" gridSize="10" guides="1" tooltips="1" connect="1" arrows="1" fold="1" page="1" pageScale="1" pageWidth="827" pageHeight="1169" math="0" shadow="0">
      <root>
        <mxCell id="0" />
        <mxCell id="1" parent="0" />
        <mxCell id="5iqYC0vRyJse41guf9SQ-1" value="纯湖存储" style="text;html=1;strokeColor=none;fillColor=none;align=center;verticalAlign=middle;whiteSpace=wrap;rounded=0;" vertex="1" parent="1">
          <mxGeometry x="90" y="150" width="60" height="30" as="geometry" />
        </mxCell>
        <mxCell id="5iqYC0vRyJse41guf9SQ-4" style="edgeStyle=orthogonalEdgeStyle;rounded=0;orthogonalLoop=1;jettySize=auto;html=1;" edge="1" parent="1" source="5iqYC0vRyJse41guf9SQ-2" target="5iqYC0vRyJse41guf9SQ-3">
          <mxGeometry relative="1" as="geometry" />
        </mxCell>
        <mxCell id="5iqYC0vRyJse41guf9SQ-2" value="DLC spark" style="rounded=0;whiteSpace=wrap;html=1;" vertex="1" parent="1">
          <mxGeometry x="80" y="220" width="120" height="70" as="geometry" />
        </mxCell>
        <mxCell id="5iqYC0vRyJse41guf9SQ-3" value="DLC COS iceberg/hudi" style="rounded=0;whiteSpace=wrap;html=1;" vertex="1" parent="1">
          <mxGeometry x="80" y="390" width="640" height="60" as="geometry" />
        </mxCell>
        <mxCell id="5iqYC0vRyJse41guf9SQ-5" value="ingest / etl /index" style="text;html=1;strokeColor=none;fillColor=none;align=center;verticalAlign=middle;whiteSpace=wrap;rounded=0;" vertex="1" parent="1">
          <mxGeometry x="180" y="310" width="120" height="30" as="geometry" />
        </mxCell>
      </root>
    </mxGraphModel>
  </diagram>
</mxfile>
